<svg width="285" height="71" viewBox="0 0 285 71" fill="none" xmlns="http://www.w3.org/2000/svg">
<path d="M37.0288 34.1045C37.354 35.0803 36.6222 35.3243 36.2156 35.3243C24.9672 30.7165 2.14502 21.4195 0.843994 21.0943C-0.457032 20.769 0.0308527 20.4167 0.437423 20.2811L5.31627 18.6549C13.4477 16.2154 14.2608 14.1826 15.4805 12.5563C16.4563 11.2553 17.7844 6.05116 18.3265 3.61174L19.1397 0.359182C19.4649 -0.291331 19.8173 0.0881348 19.9528 0.359182C25.5093 11.2011 36.7035 33.1288 37.0288 34.1045Z" fill="#800000"/>
<path d="M37.0288 20.6877C38.6551 23.6151 42.8563 24.6179 44.7536 24.7534C54.8366 26.3797 57.3573 33.5625 57.3573 36.9506C59.6341 48.6598 50.4456 54.0265 45.5668 55.2463C33.207 57.1978 28.2198 48.7411 27.2711 44.2689C26.9458 40.3658 24.4251 37.7637 23.2054 36.9506L13.4477 33.698C11.1709 37.9263 12.499 45.7596 13.4477 49.1477C17.3508 64.4348 34.0473 69.6118 41.9076 70.2894C62.0735 68.9883 70.0965 54.0265 71.5873 46.7083C74.5146 25.2413 61.152 14.9958 54.1048 12.5563C45.3228 8.32799 36.3512 10.5235 32.9631 12.1498C33.6407 13.776 35.4025 17.7604 37.0288 20.6877Z" fill="#800000"/>
<path d="M105.505 27.565H113.76C117.053 27.565 119.415 28.2583 120.845 29.645C122.275 31.0317 122.99 33.025 122.99 35.625V51.94C122.99 54.54 122.275 56.5333 120.845 57.92C119.415 59.3067 117.053 60 113.76 60H105.505C102.212 60 99.85 59.3067 98.42 57.92C96.99 56.5333 96.275 54.54 96.275 51.94V35.625C96.275 33.025 96.99 31.0317 98.42 29.645C99.85 28.2583 102.212 27.565 105.505 27.565ZM112.135 50.9V36.665C112.135 35.7117 111.593 35.235 110.51 35.235H108.755C107.672 35.235 107.13 35.7117 107.13 36.665V50.9C107.13 51.8533 107.672 52.33 108.755 52.33H110.51C111.593 52.33 112.135 51.8533 112.135 50.9ZM142.779 16.515H153.829V60H142.974V55.84C142.367 58.6133 140.396 60 137.059 60H135.889C130.126 60 127.244 57.3133 127.244 51.94V35.625C127.244 30.2517 130.126 27.565 135.889 27.565H137.059C140.049 27.565 141.956 28.735 142.779 31.075V16.515ZM139.919 51.875H141.024C142.194 51.875 142.779 51.225 142.779 49.925V37.64C142.779 36.34 142.194 35.69 141.024 35.69H139.919C138.836 35.69 138.294 36.1667 138.294 37.12V50.445C138.294 51.3983 138.836 51.875 139.919 51.875ZM174.077 27.565H184.932V60H173.882V56.49C173.059 58.83 171.152 60 168.162 60H166.992C161.229 60 158.347 57.3133 158.347 51.94V35.625C158.347 30.2517 161.229 27.565 166.992 27.565H168.162C171.499 27.565 173.471 28.9517 174.077 31.725V27.565ZM171.022 51.875H172.127C173.297 51.875 173.882 51.225 173.882 49.925V37.64C173.882 36.34 173.297 35.69 172.127 35.69H171.022C169.939 35.69 169.397 36.1667 169.397 37.12V50.445C169.397 51.3983 169.939 51.875 171.022 51.875ZM198.486 27.565L202.451 48.365L206.351 27.565H217.336L209.016 60H195.821L187.501 27.565H198.486ZM228.84 27.565H237.095C240.388 27.565 242.75 28.2583 244.18 29.645C245.61 31.0317 246.325 33.025 246.325 35.625V51.94C246.325 54.54 245.61 56.5333 244.18 57.92C242.75 59.3067 240.388 60 237.095 60H228.84C225.547 60 223.185 59.3067 221.755 57.92C220.325 56.5333 219.61 54.54 219.61 51.94V35.625C219.61 33.025 220.325 31.0317 221.755 29.645C223.185 28.2583 225.547 27.565 228.84 27.565ZM235.47 50.9V36.665C235.47 35.7117 234.928 35.235 233.845 35.235H232.09C231.007 35.235 230.465 35.7117 230.465 36.665V50.9C230.465 51.8533 231.007 52.33 232.09 52.33H233.845C234.928 52.33 235.47 51.8533 235.47 50.9ZM262.279 60H251.229V16.515H262.279V60ZM283.924 35.69H279.829V50.445C279.829 51.3983 280.371 51.875 281.454 51.875H283.859V60H278.334C271.964 60 268.779 57.3133 268.779 51.94V35.69H265.204V27.565H268.779V21.195H279.829V27.565H283.924V35.69Z" fill="#800000"/>
</svg>
